<svg width="256" height="199" viewBox="0 0 256 199" fill="none" xmlns="http://www.w3.org/2000/svg">
<path d="M255.995 57.8345C255.491 55.313 217.347 58.1685 208.849 58.8365C207.872 58.9133 206.866 58.3026 206.104 57.6862C204.232 56.1703 199.17 53.6649 185.615 52.1587C169.126 50.3266 151.528 68.0836 145.349 75.0074C144.311 76.1706 142.345 75.8864 141.704 74.4652C129.999 48.5256 76.0834 -30.9488 77.7736 12.9954C79.5418 58.9697 85.7198 47.0365 107.856 66.3483C123.569 80.057 128.128 86.0295 129.451 88.3411C129.868 89.0711 129.465 89.8105 128.675 90.098L125.224 91.3527C124.358 91.6678 123.417 91.3822 122.871 90.6393C104.978 66.2994 23.1396 16.6539 14.7718 31.1581C6.97014 44.6808 68.2754 104.91 78.5864 114.892C79.4018 115.681 79.4169 116.905 78.6034 117.696C67.718 128.284 -1.14715 195.414 0.0145375 198.028C1.27584 200.866 65.8543 171.351 77.7736 168.513C89.6928 165.676 134.532 167.378 168.587 138.999C198.918 113.724 206.737 77.1925 208.085 69.5043C208.238 68.6291 208.897 67.9623 209.775 67.8249C217.827 66.5651 256.504 60.3773 255.995 57.8345Z" fill="url(#paint0_linear)"/>
<defs>
<linearGradient id="paint0_linear" x1="-1.91229e-05" y1="198" x2="256" y2="-8.42452e-06" gradientUnits="userSpaceOnUse">
<stop offset="0.145833" stop-color="#034C5C"/>
<stop offset="0.479167" stop-color="#188C7B"/>
<stop offset="0.833333" stop-color="#4CC8A2"/>
</linearGradient>
</defs>
</svg>
